<svg width="300" height="302" viewBox="0 0 300 302" fill="none" xmlns="http://www.w3.org/2000/svg">
<ellipse cx="147.568" cy="169.838" rx="101.351" ry="101.351" fill="#A8A4A4"/>
<g filter="url(#filter0_d)">
<path d="M180.811 40.5135C180.811 55.9625 166.835 68.4865 149.595 68.4865C132.354 68.4865 118.378 55.9625 118.378 40.5135C118.378 25.0645 132.354 12.5405 149.595 12.5405C166.835 12.5405 180.811 25.0645 180.811 40.5135Z" stroke="black" stroke-width="5"/>
</g>
<rect x="140.27" y="46.5946" width="18.6487" height="15.4054" fill="#100F0F"/>
<path d="M151.151 86.2549C163.806 86.6448 176.315 89.2476 187.964 93.9147C199.612 98.5819 210.173 105.222 219.041 113.456L150.293 171.956L151.151 86.2549Z" fill="#009688"/>
<g filter="url(#filter1_d)">
<ellipse cx="150" cy="167.405" rx="103.784" ry="103.784" stroke="black" stroke-width="18"/>
<ellipse cx="150" cy="167.405" rx="103.784" ry="103.784" stroke="url(#paint0_linear)" stroke-width="18"/>
</g>
<ellipse cx="149.595" cy="170.243" rx="15.8108" ry="14.1892" fill="#0E0D0D"/>
<g filter="url(#filter2_d)">
<rect x="127.297" y="32.8108" width="45.4054" height="16.2162" fill="#009688"/>
</g>
<g filter="url(#filter3_d)">
<rect width="21.0811" height="21.0811" transform="matrix(0.715172 -0.698948 0.7788 0.627272 206.757 76.7345)" fill="#151414"/>
</g>
<g filter="url(#filter4_d)">
<rect width="21.0811" height="21.0811" transform="matrix(0.715172 -0.698948 0.7788 0.627272 61.6216 76.7345)" fill="#151414"/>
</g>
<path d="M221.522 109.941L161.32 169.909L150.754 159.901L221.522 109.941Z" fill="#141414"/>
<ellipse cx="149.189" cy="86.3243" rx="8.10811" ry="8.1081" fill="#131313"/>
<ellipse cx="231.081" cy="167.405" rx="8.10812" ry="8.10811" fill="#131313"/>
<circle cx="149.189" cy="247.676" r="8.10811" fill="#131313"/>
<circle cx="104.595" cy="239.568" r="4.05405" fill="#131313"/>
<ellipse cx="78.6487" cy="216.054" rx="4.05406" ry="4.05405" fill="#131313"/>
<circle cx="74.5946" cy="131.73" r="4.05405" fill="#131313"/>
<ellipse cx="104.595" cy="98.4864" rx="4.05405" ry="4.05406" fill="#131313"/>
<ellipse cx="222.162" cy="131.73" rx="4.05406" ry="4.05405" fill="#131313"/>
<ellipse cx="218.108" cy="212" rx="4.05406" ry="4.05405" fill="#131313"/>
<ellipse cx="193.784" cy="235.514" rx="4.05406" ry="4.05405" fill="#131313"/>
<ellipse cx="193.784" cy="98.4864" rx="4.05406" ry="4.05406" fill="#131313"/>
<ellipse cx="68.9189" cy="167.405" rx="8.10811" ry="8.10811" fill="#131313"/>
<ellipse cx="150" cy="170.243" rx="7.2973" ry="6.08108" fill="#A8A4A4"/>
<g filter="url(#filter5_d)">
<rect x="46.2162" y="73.9568" width="40.5405" height="16.2162" rx="8.10811" transform="rotate(-45.6379 46.2162 73.9568)" fill="#009688"/>
</g>
<g filter="url(#filter6_d)">
<rect x="245.584" y="83.0685" width="40.5405" height="16.2162" rx="8.10811" transform="rotate(-141.053 245.584 83.0685)" fill="#009688"/>
</g>
<path d="M141.971 174.018L136.117 186.783L127.989 175.33L141.971 174.018Z" fill="#0C0C0C"/>
<defs>
<filter id="filter0_d" x="115.878" y="0.0405273" width="87.4324" height="80.9459" filterUnits="userSpaceOnUse" color-interpolation-filters="sRGB">
<feFlood flood-opacity="0" result="BackgroundImageFix"/>
<feColorMatrix in="SourceAlpha" type="matrix" values="0 0 0 0 0 0 0 0 0 0 0 0 0 0 0 0 0 0 127 0"/>
<feOffset dx="10"/>
<feGaussianBlur stdDeviation="5"/>
<feColorMatrix type="matrix" values="0 0 0 0 0 0 0 0 0 0 0 0 0 0 0 0 0 0 1 0"/>
<feBlend mode="normal" in2="BackgroundImageFix" result="effect1_dropShadow"/>
<feBlend mode="normal" in="SourceGraphic" in2="effect1_dropShadow" result="shape"/>
</filter>
<filter id="filter1_d" x="37.2162" y="44.6216" width="245.568" height="245.568" filterUnits="userSpaceOnUse" color-interpolation-filters="sRGB">
<feFlood flood-opacity="0" result="BackgroundImageFix"/>
<feColorMatrix in="SourceAlpha" type="matrix" values="0 0 0 0 0 0 0 0 0 0 0 0 0 0 0 0 0 0 127 0"/>
<feOffset dx="10"/>
<feGaussianBlur stdDeviation="5"/>
<feColorMatrix type="matrix" values="0 0 0 0 0 0 0 0 0 0 0 0 0 0 0 0 0 0 0.6 0"/>
<feBlend mode="normal" in2="BackgroundImageFix" result="effect1_dropShadow"/>
<feBlend mode="normal" in="SourceGraphic" in2="effect1_dropShadow" result="shape"/>
</filter>
<filter id="filter2_d" x="127.297" y="22.8108" width="65.4054" height="36.2162" filterUnits="userSpaceOnUse" color-interpolation-filters="sRGB">
<feFlood flood-opacity="0" result="BackgroundImageFix"/>
<feColorMatrix in="SourceAlpha" type="matrix" values="0 0 0 0 0 0 0 0 0 0 0 0 0 0 0 0 0 0 127 0"/>
<feOffset dx="10"/>
<feGaussianBlur stdDeviation="5"/>
<feColorMatrix type="matrix" values="0 0 0 0 0 0 0 0 0 0 0 0 0 0 0 0 0 0 0.6 0"/>
<feBlend mode="normal" in2="BackgroundImageFix" result="effect1_dropShadow"/>
<feBlend mode="normal" in="SourceGraphic" in2="effect1_dropShadow" result="shape"/>
</filter>
<filter id="filter3_d" x="206.757" y="51.9999" width="51.4945" height="47.9582" filterUnits="userSpaceOnUse" color-interpolation-filters="sRGB">
<feFlood flood-opacity="0" result="BackgroundImageFix"/>
<feColorMatrix in="SourceAlpha" type="matrix" values="0 0 0 0 0 0 0 0 0 0 0 0 0 0 0 0 0 0 127 0"/>
<feOffset dx="10"/>
<feGaussianBlur stdDeviation="5"/>
<feColorMatrix type="matrix" values="0 0 0 0 0 0 0 0 0 0 0 0 0 0 0 0 0 0 0.6 0"/>
<feBlend mode="normal" in2="BackgroundImageFix" result="effect1_dropShadow"/>
<feBlend mode="normal" in="SourceGraphic" in2="effect1_dropShadow" result="shape"/>
</filter>
<filter id="filter4_d" x="61.6216" y="51.9999" width="51.4946" height="47.9582" filterUnits="userSpaceOnUse" color-interpolation-filters="sRGB">
<feFlood flood-opacity="0" result="BackgroundImageFix"/>
<feColorMatrix in="SourceAlpha" type="matrix" values="0 0 0 0 0 0 0 0 0 0 0 0 0 0 0 0 0 0 127 0"/>
<feOffset dx="10"/>
<feGaussianBlur stdDeviation="5"/>
<feColorMatrix type="matrix" values="0 0 0 0 0 0 0 0 0 0 0 0 0 0 0 0 0 0 0.6 0"/>
<feBlend mode="normal" in2="BackgroundImageFix" result="effect1_dropShadow"/>
<feBlend mode="normal" in="SourceGraphic" in2="effect1_dropShadow" result="shape"/>
</filter>
<filter id="filter5_d" x="49.574" y="38.3307" width="53.2236" height="53.6065" filterUnits="userSpaceOnUse" color-interpolation-filters="sRGB">
<feFlood flood-opacity="0" result="BackgroundImageFix"/>
<feColorMatrix in="SourceAlpha" type="matrix" values="0 0 0 0 0 0 0 0 0 0 0 0 0 0 0 0 0 0 127 0"/>
<feOffset dx="10"/>
<feGaussianBlur stdDeviation="5"/>
<feColorMatrix type="matrix" values="0 0 0 0 0 0 0 0 0 0 0 0 0 0 0 0 0 0 0.6 0"/>
<feBlend mode="normal" in2="BackgroundImageFix" result="effect1_dropShadow"/>
<feBlend mode="normal" in="SourceGraphic" in2="effect1_dropShadow" result="shape"/>
</filter>
<filter id="filter6_d" x="217.348" y="38.2672" width="55.1345" height="51.507" filterUnits="userSpaceOnUse" color-interpolation-filters="sRGB">
<feFlood flood-opacity="0" result="BackgroundImageFix"/>
<feColorMatrix in="SourceAlpha" type="matrix" values="0 0 0 0 0 0 0 0 0 0 0 0 0 0 0 0 0 0 127 0"/>
<feOffset dx="10"/>
<feGaussianBlur stdDeviation="5"/>
<feColorMatrix type="matrix" values="0 0 0 0 0 0 0 0 0 0 0 0 0 0 0 0 0 0 0.6 0"/>
<feBlend mode="normal" in2="BackgroundImageFix" result="effect1_dropShadow"/>
<feBlend mode="normal" in="SourceGraphic" in2="effect1_dropShadow" result="shape"/>
</filter>
<linearGradient id="paint0_linear" x1="150" y1="275.243" x2="130.541" y2="72.5405" gradientUnits="userSpaceOnUse">
<stop stop-color="#009688"/>
<stop offset="0.875" stop-color="#DFF2F0" stop-opacity="0.125"/>
<stop offset="1" stop-color="white" stop-opacity="0"/>
</linearGradient>
</defs>
</svg>
