<svg width="256" height="256" viewBox="0 0 256 256" fill="none" xmlns="http://www.w3.org/2000/svg">
<path d="M120.5 4.33013C125.141 1.65064 130.859 1.65064 135.5 4.33013L231.351 59.6699C235.992 62.3494 238.851 67.3013 238.851 72.6603V183.34C238.851 188.699 235.992 193.651 231.351 196.33L135.5 251.67C130.859 254.349 125.141 254.349 120.5 251.67L24.6488 196.33C20.0077 193.651 17.1488 188.699 17.1488 183.34V72.6603C17.1488 67.3013 20.0077 62.3494 24.6488 59.6699L120.5 4.33013Z" fill="#00CEB4"/>
<path d="M120.5 9.33013C125.141 6.65064 130.859 6.65064 135.5 9.33013L227.021 62.1699C231.662 64.8494 234.521 69.8013 234.521 75.1603V180.84C234.521 186.199 231.662 191.151 227.021 193.83L135.5 246.67C130.859 249.349 125.141 249.349 120.5 246.67L28.9789 193.83C24.3379 191.151 21.4789 186.199 21.4789 180.84V75.1603C21.4789 69.8013 24.3379 64.8494 28.9789 62.1699L120.5 9.33013Z" fill="#E7E7E7"/>
<g filter="url(#filter0_d)">
<rect x="0.588453" y="0.349302" width="98.5407" height="103.979" rx="9.5" transform="matrix(0.960658 -0.277735 0.216249 0.976338 36.9279 86.8539)" fill="white" stroke="black"/>
<rect width="88.5841" height="72.174" rx="5" transform="matrix(0.961989 -0.27309 0.212008 0.977268 44.7717 92.4222)" fill="#002762"/>
<line y1="-0.5" x2="47.2136" y2="-0.5" transform="matrix(0.664507 -0.786831 0.693287 0.679173 62.7832 159.351)" stroke="black"/>
<path d="M72.5454 167.299C72.4551 167.512 72.3073 167.979 72.1021 168.7C71.2586 171.749 70.7477 173.293 70.5694 173.335C70.3 173.398 70.0436 173.291 69.8 173.014C69.5574 172.741 69.1246 171.963 68.5015 170.68C67.8824 169.395 67.3214 168.16 66.8184 166.974C66.6582 166.644 66.5155 166.377 66.3902 166.172C66.2188 165.899 66.1152 165.689 66.0795 165.543C66.0419 165.389 66.0656 165.237 66.1506 165.087C66.2386 164.933 66.3539 164.839 66.4965 164.806C66.6708 164.765 66.8541 164.864 67.0465 165.103C67.2418 165.337 67.5442 165.95 67.9534 166.94C68.8391 169.094 69.5996 170.7 70.235 171.759C70.8405 169.949 71.2119 168.803 71.3494 168.319C71.4859 167.831 71.6573 167.058 71.8636 165.998C71.9274 165.762 72.0602 165.62 72.2623 165.572C72.3494 165.552 72.4697 165.616 72.6231 165.764C72.7755 165.908 73.0849 166.334 73.5512 167.044C74.7084 168.8 75.4585 169.84 75.8017 170.165C76.6347 167.537 76.8627 164.961 76.4856 162.438C76.4721 162.383 76.5053 162.295 76.5851 162.176C76.668 162.052 76.7569 161.979 76.852 161.957C77.1689 161.883 77.3766 162.047 77.475 162.45C77.5772 162.869 77.6236 163.523 77.6142 164.411C77.6078 165.295 77.5424 166.125 77.4179 166.902C77.2965 167.674 77.0632 168.864 76.7181 170.47C76.6601 170.73 76.6137 170.961 76.5788 171.161C76.5575 171.246 76.4957 171.327 76.3934 171.405C76.295 171.483 76.2121 171.529 76.1448 171.545C75.9744 171.585 75.7794 171.532 75.5598 171.388C75.3401 171.243 74.9421 170.761 74.3656 169.944C73.7882 169.122 73.3647 168.503 73.0954 168.085C72.9082 167.799 72.7249 167.537 72.5454 167.299ZM80.1667 162.076C80.0835 162.096 79.9984 162.021 79.9115 161.854C79.8821 161.802 79.8454 161.746 79.8012 161.685C79.6316 161.453 79.5236 161.243 79.4773 161.053C79.4387 160.895 79.4927 160.713 79.6394 160.507C79.789 160.297 79.9787 160.164 80.2085 160.11C80.3234 160.083 80.4632 160.099 80.628 160.156C80.7918 160.21 80.8839 160.278 80.9041 160.361C80.936 160.491 80.9405 160.724 80.9176 161.06C80.8988 161.395 80.7959 161.642 80.609 161.803C80.4251 161.959 80.2776 162.05 80.1667 162.076ZM81.0045 168.882C81.0779 169.182 81.2019 169.511 81.3768 169.867C81.41 169.934 81.4324 169.991 81.4439 170.039C81.4613 170.11 81.4181 170.216 81.3144 170.358C81.2116 170.503 81.087 170.593 80.9404 170.627C80.5561 170.717 80.2781 170.411 80.1064 169.707C79.9289 168.98 79.7988 167.794 79.7159 166.15C79.6848 165.576 79.6539 165.226 79.623 165.1C79.5622 164.851 79.5562 164.629 79.6048 164.433C79.6525 164.234 79.7596 164.115 79.926 164.076C80.128 164.028 80.2985 164.041 80.4375 164.113C80.5795 164.18 80.665 164.272 80.6939 164.391C80.7229 164.51 80.7332 164.672 80.7251 164.879C80.6826 165.992 80.6807 166.783 80.7194 167.25C80.758 167.717 80.8531 168.261 81.0045 168.882ZM86.3662 167.581C86.3035 167.324 85.9152 167.105 85.2013 166.926C84.2968 166.703 83.672 166.503 83.327 166.325C82.985 166.142 82.7768 165.898 82.7025 165.594C82.5106 164.807 82.7456 164.062 83.4075 163.36C84.0735 162.656 84.656 162.246 85.1552 162.129C85.476 162.053 85.7213 162.054 85.8909 162.132C86.0645 162.208 86.1846 162.382 86.2511 162.655C86.281 162.778 86.2531 162.895 86.1674 163.007C86.0856 163.118 86.015 163.181 85.9556 163.195C85.912 163.205 85.8196 163.195 85.6784 163.166C85.5381 163.14 85.4481 163.132 85.4085 163.141C85.2105 163.188 84.8436 163.426 84.3079 163.857C83.7722 164.288 83.5487 164.685 83.6375 165.048C83.6915 165.27 83.8476 165.446 84.1059 165.578C84.3633 165.706 84.8011 165.835 85.4193 165.966C85.9191 166.074 86.3316 166.22 86.6568 166.403C86.985 166.581 87.1892 166.834 87.2692 167.162C87.4168 167.767 87.1147 168.339 86.3627 168.879C85.6098 169.415 84.853 169.772 84.0924 169.951C83.4506 170.101 83.0767 169.959 82.9706 169.524C82.9339 169.374 82.9782 169.247 83.1035 169.142C83.2327 169.036 83.3706 168.966 83.5172 168.932C83.5766 168.918 83.6943 168.911 83.8703 168.912C84.0424 168.913 84.1542 168.908 84.2057 168.896C84.6454 168.793 85.099 168.609 85.5664 168.345C86.0338 168.081 86.3004 167.826 86.3662 167.581ZM93.4745 165.224C93.5729 165.627 93.333 166.197 92.7549 166.935C92.1807 167.671 91.5133 168.129 90.7527 168.307C90.1149 168.457 89.5759 168.385 89.1356 168.091C88.6993 167.796 88.3992 167.313 88.2352 166.641C87.9593 165.51 88.0792 164.345 88.5949 163.146C89.1106 161.947 89.822 161.241 90.7292 161.028C91.0263 160.958 91.2916 160.999 91.5251 161.149C91.7625 161.298 91.9145 161.509 91.9811 161.781C92.1296 162.39 91.9728 163.043 91.5106 163.741C91.0485 164.439 90.3818 165.174 89.5108 165.947C89.3308 166.102 89.2616 166.264 89.303 166.434C89.3831 166.762 89.5423 167.003 89.7807 167.156C90.0191 167.309 90.3245 167.342 90.6969 167.254C91.5486 167.055 92.3034 166.38 92.9612 165.231C93.0601 165.07 93.1432 164.982 93.2105 164.966C93.3373 164.936 93.4253 165.022 93.4745 165.224ZM89.1189 165.267C90.5555 163.877 91.2 162.88 91.0524 162.275C90.9945 162.038 90.8586 161.944 90.6447 161.995C90.2802 162.08 89.9333 162.444 89.604 163.085C89.2787 163.725 89.1169 164.453 89.1189 165.267Z" fill="black"/>
<rect x="0.486928" y="0.498682" width="97.2434" height="105.194" rx="9.5" transform="matrix(0.999997 -0.00229507 -0.0261412 0.999658 90.0728 66.2184)" fill="white" stroke="black"/>
<rect width="87.4473" height="72.9957" rx="5" transform="matrix(0.999999 0.00133404 -0.0292455 0.999572 96.7433 73.0397)" fill="#002762"/>
<line y1="-0.5" x2="46.7066" y2="-0.5" transform="matrix(0.771616 -0.636089 0.577934 0.816083 100.089 142.632)" stroke="black"/>
<path d="M103.637 156.718C103.512 156.913 103.287 157.35 102.963 158.027C101.617 160.893 100.852 162.332 100.669 162.344C100.393 162.361 100.159 162.213 99.9654 161.899C99.7726 161.59 99.4776 160.75 99.0806 159.381C98.6877 158.012 98.3436 156.7 98.0484 155.447C97.9464 155.095 97.851 154.807 97.7621 154.585C97.6394 154.287 97.5728 154.062 97.5624 153.912C97.5514 153.754 97.6004 153.608 97.7094 153.475C97.8222 153.337 97.9517 153.264 98.0979 153.254C98.2766 153.243 98.4405 153.371 98.5896 153.639C98.7425 153.902 98.9369 154.557 99.1727 155.602C99.6814 157.873 100.159 159.583 100.606 160.733C101.509 159.049 102.069 157.98 102.286 157.526C102.503 157.067 102.803 156.333 103.185 155.322C103.288 155.099 103.443 154.981 103.65 154.968C103.739 154.962 103.847 155.045 103.973 155.217C104.099 155.384 104.332 155.856 104.671 156.634C105.515 158.558 106.078 159.708 106.361 160.086C107.626 157.632 108.286 155.13 108.342 152.578C108.338 152.521 108.385 152.44 108.484 152.336C108.586 152.228 108.686 152.171 108.784 152.164C109.109 152.144 109.286 152.34 109.314 152.754C109.344 153.185 109.28 153.837 109.12 154.712C108.964 155.582 108.76 156.39 108.506 157.136C108.255 157.877 107.824 159.012 107.213 160.539C107.112 160.786 107.027 161.005 106.959 161.197C106.923 161.277 106.849 161.347 106.735 161.407C106.625 161.467 106.535 161.499 106.466 161.504C106.291 161.515 106.108 161.431 105.916 161.251C105.724 161.072 105.413 160.531 104.984 159.629C104.553 158.723 104.241 158.041 104.046 157.585C103.91 157.271 103.774 156.982 103.637 156.718ZM112.03 152.832C111.945 152.838 111.874 152.75 111.816 152.571C111.796 152.515 111.769 152.453 111.736 152.386C111.608 152.129 111.537 151.903 111.524 151.709C111.512 151.546 111.596 151.376 111.776 151.197C111.959 151.014 112.168 150.915 112.404 150.9C112.521 150.893 112.657 150.931 112.809 151.015C112.962 151.095 113.041 151.178 113.047 151.263C113.056 151.397 113.021 151.628 112.942 151.955C112.867 152.282 112.723 152.509 112.512 152.636C112.304 152.76 112.144 152.825 112.03 152.832ZM111.705 159.684C111.727 159.993 111.793 160.337 111.905 160.717C111.927 160.789 111.939 160.85 111.942 160.898C111.948 160.971 111.887 161.069 111.761 161.191C111.635 161.318 111.497 161.385 111.347 161.395C110.953 161.42 110.731 161.071 110.681 160.349C110.629 159.602 110.701 158.411 110.897 156.776C110.964 156.205 110.992 155.854 110.983 155.724C110.965 155.469 110.997 155.248 111.078 155.064C111.159 154.875 111.284 154.776 111.455 154.765C111.662 154.752 111.828 154.792 111.953 154.886C112.081 154.976 112.15 155.081 112.158 155.203C112.167 155.325 112.149 155.487 112.106 155.69C111.876 156.781 111.741 157.56 111.7 158.027C111.659 158.495 111.661 159.047 111.705 159.684ZM117.209 159.291C117.19 159.027 116.844 158.748 116.171 158.452C115.318 158.082 114.736 157.781 114.426 157.548C114.12 157.31 113.956 157.036 113.934 156.723C113.878 155.915 114.236 155.22 115.007 154.636C115.782 154.053 116.425 153.745 116.937 153.712C117.266 153.691 117.507 153.733 117.661 153.838C117.82 153.942 117.908 154.134 117.928 154.414C117.937 154.54 117.889 154.651 117.786 154.747C117.686 154.843 117.606 154.893 117.545 154.897C117.501 154.9 117.411 154.875 117.277 154.822C117.143 154.774 117.056 154.751 117.015 154.753C116.812 154.766 116.41 154.941 115.81 155.276C115.209 155.612 114.922 155.967 114.948 156.34C114.964 156.568 115.088 156.768 115.32 156.941C115.552 157.109 115.961 157.309 116.548 157.541C117.023 157.731 117.404 157.943 117.694 158.178C117.987 158.408 118.146 158.691 118.169 159.028C118.212 159.649 117.818 160.164 116.986 160.571C116.153 160.975 115.347 161.201 114.567 161.251C113.909 161.293 113.565 161.091 113.534 160.644C113.523 160.49 113.588 160.372 113.729 160.289C113.875 160.207 114.022 160.161 114.173 160.151C114.233 160.147 114.351 160.16 114.524 160.19C114.693 160.22 114.804 160.233 114.857 160.23C115.308 160.201 115.786 160.095 116.291 159.912C116.796 159.729 117.102 159.522 117.209 159.291Z" fill="black"/>
<rect x="0.356331" y="0.615681" width="97.023" height="105.397" rx="9.5" transform="matrix(0.964625 0.263625 -0.251963 0.967737 140.319 64.7275)" fill="white" stroke="black"/>
<rect width="88.9888" height="73.1219" rx="5" transform="matrix(0.962173 0.272438 -0.259471 0.965751 142.965 72.5579)" fill="#002762"/>
<line y1="-0.5" x2="46.862" y2="-0.5" transform="matrix(0.917894 -0.396826 0.327534 0.94484 129.22 143.654)" stroke="black"/>
<line y1="-0.5" x2="23.7408" y2="-0.5" transform="matrix(0.582362 0.812929 -0.762451 0.647046 171.981 125.01)" stroke="black"/>
<line y1="-0.5" x2="16.8528" y2="-0.5" transform="matrix(-0.87867 0.47743 -0.406107 -0.913826 200.429 136.184)" stroke="black"/>
<line y1="-0.5" x2="20.5107" y2="-0.5" transform="matrix(-0.502247 -0.864724 0.820329 -0.571892 210.744 153.923)" stroke="black"/>
<path d="M216.191 120.39C215.477 124.155 211.806 126.63 207.981 125.905C204.156 125.179 201.646 121.531 202.361 117.766C203.075 114.001 206.746 111.525 210.571 112.251C214.396 112.977 216.905 116.625 216.191 120.39Z" fill="#002762" stroke="black"/>
<path d="M138.348 157.164C138.161 157.304 137.795 157.633 137.251 158.154C134.969 160.366 133.741 161.446 133.565 161.394C133.3 161.314 133.133 161.094 133.064 160.733C132.993 160.376 133.016 159.489 133.131 158.07C133.25 156.653 133.394 155.307 133.563 154.033C133.593 153.668 133.606 153.366 133.602 153.126C133.593 152.805 133.61 152.572 133.654 152.428C133.7 152.276 133.798 152.157 133.947 152.07C134.102 151.981 134.25 151.957 134.39 151.999C134.561 152.051 134.669 152.228 134.714 152.53C134.763 152.829 134.713 153.509 134.562 154.568C134.23 156.869 134.069 158.635 134.079 159.865C135.524 158.604 136.429 157.799 136.794 157.45C137.161 157.097 137.703 156.514 138.421 155.701C138.597 155.529 138.784 155.473 138.983 155.532C139.068 155.558 139.14 155.673 139.197 155.877C139.255 156.077 139.305 156.6 139.347 157.445C139.453 159.537 139.571 160.809 139.702 161.261C141.761 159.406 143.27 157.295 144.229 154.928C144.246 154.874 144.319 154.815 144.449 154.752C144.583 154.686 144.697 154.667 144.791 154.695C145.103 154.789 145.198 155.034 145.078 155.431C144.953 155.844 144.66 156.432 144.2 157.194C143.744 157.954 143.265 158.638 142.761 159.248C142.263 159.854 141.455 160.765 140.339 161.981C140.156 162.176 139.999 162.352 139.866 162.508C139.805 162.57 139.71 162.61 139.582 162.626C139.457 162.644 139.362 162.643 139.296 162.623C139.128 162.573 138.986 162.431 138.87 162.196C138.754 161.962 138.655 161.348 138.574 160.355C138.493 159.358 138.443 158.612 138.423 158.117C138.407 157.777 138.382 157.459 138.348 157.164ZM147.595 156.448C147.513 156.424 147.478 156.318 147.488 156.129C147.489 156.07 147.486 156.003 147.478 155.929C147.45 155.644 147.464 155.408 147.521 155.222C147.568 155.066 147.707 154.936 147.939 154.831C148.175 154.724 148.407 154.704 148.633 154.772C148.746 154.806 148.859 154.888 148.972 155.02C149.086 155.148 149.131 155.253 149.106 155.334C149.067 155.463 148.953 155.666 148.762 155.945C148.575 156.224 148.36 156.387 148.117 156.433C147.878 156.476 147.704 156.481 147.595 156.448ZM144.853 162.743C144.763 163.039 144.703 163.384 144.673 163.779C144.667 163.854 144.657 163.914 144.643 163.961C144.622 164.031 144.53 164.102 144.369 164.172C144.206 164.246 144.052 164.262 143.908 164.219C143.53 164.105 143.446 163.702 143.656 163.009C143.873 162.292 144.365 161.203 145.13 159.742C145.396 159.231 145.547 158.914 145.585 158.789C145.659 158.544 145.767 158.349 145.909 158.204C146.052 158.056 146.205 158.006 146.368 158.056C146.567 158.115 146.708 158.211 146.792 158.342C146.88 158.471 146.907 158.593 146.872 158.71C146.836 158.827 146.762 158.973 146.65 159.147C146.046 160.087 145.642 160.769 145.437 161.192C145.233 161.615 145.038 162.132 144.853 162.743ZM150.149 164.289C150.226 164.036 150.002 163.654 149.476 163.144C148.808 162.501 148.37 162.017 148.162 161.691C147.96 161.363 147.904 161.049 147.995 160.749C148.23 159.974 148.812 159.448 149.742 159.171C150.676 158.894 151.389 158.83 151.88 158.978C152.196 159.072 152.407 159.195 152.514 159.346C152.625 159.499 152.64 159.709 152.559 159.978C152.522 160.099 152.438 160.186 152.307 160.24C152.18 160.295 152.087 160.314 152.029 160.297C151.986 160.284 151.911 160.229 151.804 160.134C151.696 160.042 151.622 159.99 151.583 159.978C151.388 159.92 150.95 159.943 150.267 160.048C149.585 160.154 149.189 160.385 149.081 160.744C149.015 160.962 149.06 161.192 149.216 161.434C149.373 161.673 149.686 162.002 150.154 162.423C150.53 162.766 150.813 163.097 151.001 163.417C151.194 163.734 151.241 164.054 151.143 164.377C150.963 164.973 150.41 165.317 149.485 165.409C148.561 165.497 147.725 165.428 146.977 165.204C146.346 165.014 146.095 164.705 146.225 164.277C146.269 164.129 146.373 164.041 146.534 164.013C146.7 163.986 146.854 163.994 146.999 164.038C147.057 164.055 147.162 164.108 147.314 164.196C147.462 164.283 147.561 164.334 147.612 164.349C148.045 164.479 148.53 164.546 149.069 164.551C149.607 164.555 149.968 164.468 150.149 164.289ZM157.493 165.793C157.373 166.19 156.875 166.563 156 166.912C155.129 167.262 154.319 167.325 153.571 167.1C152.943 166.912 152.514 166.581 152.283 166.109C152.056 165.637 152.043 165.07 152.244 164.408C152.581 163.294 153.278 162.348 154.335 161.569C155.391 160.79 156.366 160.535 157.258 160.803C157.55 160.89 157.759 161.057 157.884 161.303C158.014 161.55 158.038 161.808 157.956 162.076C157.775 162.676 157.306 163.162 156.551 163.535C155.797 163.907 154.846 164.21 153.7 164.444C153.465 164.488 153.322 164.594 153.272 164.761C153.174 165.084 153.189 165.371 153.317 165.622C153.445 165.873 153.692 166.054 154.058 166.164C154.896 166.415 155.892 166.209 157.046 165.544C157.214 165.454 157.33 165.419 157.397 165.439C157.521 165.476 157.554 165.594 157.493 165.793ZM153.707 163.662C155.657 163.177 156.722 162.636 156.902 162.04C156.973 161.807 156.903 161.658 156.693 161.595C156.334 161.487 155.849 161.629 155.238 162.019C154.63 162.41 154.12 162.958 153.707 163.662ZM162.488 161.685C162.374 161.795 162.138 162.189 161.779 162.867C161.422 163.542 161.169 164.122 161.022 164.609C161.304 164.647 161.592 164.693 161.885 164.747L163.156 164.976C163.359 165.007 163.65 165.029 164.029 165.04C164.412 165.053 164.668 165.079 164.796 165.118C165.256 165.256 165.429 165.512 165.316 165.886C165.294 165.96 165.199 166.033 165.032 166.106C164.87 166.181 164.672 166.208 164.44 166.19C164.211 166.172 163.67 166.084 162.817 165.926C161.768 165.738 161.139 165.647 160.929 165.652C160.724 165.654 160.595 165.681 160.541 165.733C160.488 165.781 160.366 166.052 160.173 166.547C159.982 167.037 159.839 167.44 159.743 167.756L159.547 168.487C159.427 168.884 159.222 169.04 158.934 168.953C158.755 168.899 158.61 168.781 158.499 168.599C158.388 168.417 158.368 168.212 158.437 167.982C158.711 167.078 159.51 165.241 160.835 162.469C161.145 161.823 161.308 161.475 161.324 161.424C161.346 161.35 161.357 161.23 161.356 161.064C161.351 160.855 161.36 160.713 161.383 160.639C161.415 160.534 161.507 160.438 161.661 160.353C161.816 160.263 161.945 160.234 162.051 160.266L162.796 160.585C163.033 160.657 163.488 160.751 164.158 160.867C165.297 161.064 166.071 161.225 166.481 161.348C166.839 161.455 167.08 161.587 167.203 161.743C167.326 161.899 167.371 162.029 167.339 162.134C167.283 162.321 167.169 162.463 166.999 162.561C166.835 162.656 166.68 162.682 166.536 162.639C166.47 162.619 166.4 162.589 166.327 162.55C165.923 162.353 165.61 162.221 165.388 162.154C164.971 162.029 164.418 161.905 163.728 161.783C163.043 161.658 162.63 161.625 162.488 161.685ZM167.101 168.308C167.161 168.25 167.238 168.166 167.33 168.058C167.779 167.53 168.167 167.128 168.493 166.852C168.82 166.572 169.164 166.314 169.524 166.079C169.889 165.844 170.205 165.677 170.473 165.579C170.744 165.483 170.979 165.43 171.177 165.421C171.377 165.409 171.56 165.428 171.728 165.478C172.067 165.58 172.312 165.766 172.464 166.037C172.617 166.304 172.652 166.574 172.57 166.846C172.533 166.967 172.461 167.064 172.354 167.138C172.25 167.213 172.12 167.228 171.964 167.181C171.801 167.132 171.673 167.015 171.58 166.83C171.483 166.643 171.359 166.527 171.207 166.482C170.802 166.36 170.092 166.682 169.077 167.448C168.063 168.214 167.299 169.164 166.786 170.297C166.655 170.589 166.52 170.767 166.381 170.832C166.243 170.897 166.074 170.899 165.875 170.839C165.684 170.782 165.589 170.598 165.589 170.288C165.59 169.978 165.692 169.487 165.896 168.813C165.951 168.63 166.083 168.23 166.292 167.612C166.538 166.883 166.765 166.304 166.972 165.873C167.006 165.802 167.078 165.635 167.188 165.371C167.306 165.079 167.402 164.881 167.476 164.775C167.555 164.672 167.671 164.588 167.827 164.524C167.986 164.461 168.14 164.452 168.288 164.497C168.432 164.54 168.525 164.619 168.567 164.733C168.614 164.845 168.621 164.954 168.59 165.059C168.544 165.211 168.44 165.413 168.278 165.666C168.095 165.947 167.978 166.143 167.927 166.255C167.875 166.384 167.812 166.516 167.737 166.651C167.648 166.807 167.475 167.235 167.22 167.936L167.149 168.15L167.101 168.308ZM175.905 171.162C175.138 171.73 174.431 172.117 173.787 172.323C173.142 172.528 172.597 172.565 172.153 172.431C171.853 172.341 171.632 172.137 171.491 171.818C171.349 171.499 171.338 171.141 171.459 170.744C171.769 169.72 172.561 168.756 173.834 167.851C175.109 166.942 176.198 166.623 177.102 166.894C177.43 166.993 177.616 167.253 177.663 167.675C177.676 167.814 177.737 167.901 177.846 167.933C178.158 168.027 178.277 168.195 178.204 168.436C178.167 168.557 178.098 168.716 177.995 168.915C177.437 170.001 177.086 170.779 176.943 171.25C176.658 172.193 176.666 172.811 176.968 173.106C177.111 173.251 177.162 173.391 177.12 173.528C177.084 173.648 176.964 173.744 176.759 173.814C176.554 173.888 176.373 173.902 176.218 173.855C175.917 173.765 175.733 173.485 175.663 173.013C175.593 172.542 175.674 171.925 175.905 171.162ZM176.545 167.766C176.03 167.611 175.286 167.915 174.311 168.676C173.338 169.433 172.755 170.129 172.563 170.763C172.427 171.211 172.507 171.48 172.803 171.569C173.232 171.697 173.957 171.443 174.979 170.807C176.001 170.171 176.622 169.49 176.841 168.766C177.01 168.209 176.911 167.876 176.545 167.766ZM184.161 170.919C183.796 170.818 182.695 171.658 180.859 173.439C180.239 174.039 179.886 174.362 179.8 174.408C179.715 174.451 179.575 174.47 179.38 174.467C179.19 174.465 179.036 174.447 178.919 174.412C178.658 174.333 178.681 173.786 178.989 172.769C179.163 172.197 179.599 171.198 180.299 169.772C180.584 169.195 180.767 168.776 180.846 168.515C180.924 168.258 181.077 168.164 181.307 168.233C181.74 168.363 181.862 168.74 181.673 169.363C181.585 169.655 181.339 170.206 180.936 171.015C180.474 171.939 180.209 172.505 180.141 172.714C180.454 172.553 180.963 172.147 181.671 171.497C182.661 170.613 183.356 170.074 183.755 169.88C184.159 169.682 184.529 169.634 184.864 169.735C185.117 169.811 185.267 170.04 185.312 170.424C185.361 170.808 185.208 171.644 184.852 172.93C184.763 173.252 184.721 173.498 184.724 173.669C184.728 173.84 184.741 173.929 184.764 173.936C184.948 173.991 185.534 173.488 186.523 172.425C187.05 171.865 187.519 171.46 187.931 171.21C188.347 170.961 188.743 170.893 189.121 171.007C189.437 171.101 189.617 171.334 189.663 171.704C189.709 172.071 189.666 172.583 189.535 173.24C189.398 173.904 189.308 174.523 189.266 175.097C189.228 175.671 189.35 176.084 189.631 176.334C189.821 176.506 189.895 176.662 189.853 176.802C189.811 176.938 189.675 177.051 189.445 177.139C189.214 177.226 189.021 177.247 188.865 177.2C188.553 177.107 188.332 176.832 188.202 176.377C188.072 175.921 188.137 175.04 188.397 173.733C188.497 173.207 188.554 172.829 188.569 172.599C188.583 172.37 188.535 172.239 188.426 172.206C188.263 172.157 188.021 172.254 187.7 172.498C187.384 172.743 186.831 173.267 186.044 174.072C185.428 174.699 184.982 175.106 184.704 175.294C184.431 175.48 184.201 175.545 184.013 175.489C183.846 175.438 183.716 175.327 183.623 175.155C183.532 174.979 183.497 174.792 183.519 174.595C183.542 174.393 183.646 173.917 183.831 173.165C184.145 171.917 184.255 171.168 184.161 170.919ZM196.262 177.433C196.142 177.83 195.644 178.203 194.769 178.552C193.897 178.902 193.088 178.965 192.339 178.74C191.712 178.552 191.283 178.221 191.052 177.749C190.825 177.277 190.812 176.71 191.012 176.048C191.35 174.934 192.047 173.988 193.103 173.209C194.16 172.43 195.134 172.175 196.027 172.443C196.319 172.53 196.528 172.697 196.653 172.943C196.783 173.19 196.806 173.448 196.725 173.716C196.543 174.316 196.075 174.802 195.32 175.175C194.565 175.547 193.615 175.85 192.468 176.084C192.234 176.128 192.091 176.234 192.04 176.401C191.943 176.724 191.958 177.011 192.086 177.262C192.214 177.513 192.461 177.694 192.827 177.804C193.665 178.055 194.661 177.849 195.815 177.184C195.982 177.094 196.099 177.059 196.165 177.079C196.29 177.116 196.322 177.234 196.262 177.433ZM192.476 175.302C194.425 174.817 195.49 174.276 195.671 173.68C195.742 173.447 195.672 173.298 195.461 173.235C195.103 173.127 194.618 173.269 194.007 173.659C193.399 174.05 192.889 174.598 192.476 175.302Z" fill="black"/>
</g>
<defs>
<filter id="filter0_d" x="19" y="39" width="227.609" height="192.805" filterUnits="userSpaceOnUse" color-interpolation-filters="sRGB">
<feFlood flood-opacity="0" result="BackgroundImageFix"/>
<feColorMatrix in="SourceAlpha" type="matrix" values="0 0 0 0 0 0 0 0 0 0 0 0 0 0 0 0 0 0 127 0"/>
<feOffset dx="5" dy="10"/>
<feGaussianBlur stdDeviation="2"/>
<feColorMatrix type="matrix" values="0 0 0 0 0 0 0 0 0 0 0 0 0 0 0 0 0 0 0.5 0"/>
<feBlend mode="normal" in2="BackgroundImageFix" result="effect1_dropShadow"/>
<feBlend mode="normal" in="SourceGraphic" in2="effect1_dropShadow" result="shape"/>
</filter>
</defs>
</svg>
