<?xml version="1.0" encoding="UTF-8" standalone="no"?>
<svg
   xmlns:dc="http://purl.org/dc/elements/1.1/"
   xmlns:cc="http://creativecommons.org/ns#"
   xmlns:rdf="http://www.w3.org/1999/02/22-rdf-syntax-ns#"
   xmlns:svg="http://www.w3.org/2000/svg"
   xmlns="http://www.w3.org/2000/svg"
   xmlns:sodipodi="http://sodipodi.sourceforge.net/DTD/sodipodi-0.dtd"
   xmlns:inkscape="http://www.inkscape.org/namespaces/inkscape"
   width="200"
   height="200"
   viewBox="0 0 52.916668 52.916668"
   version="1.1"
   id="svg8"
   inkscape:version="1.0.1 (3bc2e813f5, 2020-09-07)"
   sodipodi:docname="logo_ab_x2.svg"
   inkscape:export-filename="C:\workspace_fe\personalSite\img\logo_ab2x.png"
   inkscape:export-xdpi="30.733644"
   inkscape:export-ydpi="30.733644">
  <title
     id="title28">Logo_ab</title>
  <defs
     id="defs2">
    <inkscape:path-effect
       effect="pts2ellipse"
       id="path-effect480"
       is_visible="true"
       lpeversion="1"
       method="steiner_inellipse"
       gen_arc="true"
       arc_other="false"
       slice_arc="true"
       gen_isometric_frame="false"
       draw_axes="false"
       gen_perspective_frame="false"
       draw_perspective_axes="false"
       rot_axes="0"
       draw_ori_path="false" />
    <inkscape:path-effect
       effect="skeletal"
       id="path-effect468"
       is_visible="true"
       lpeversion="1"
       pattern="m -361.51315,-34.185979 c 0,-1.97863 -1.6115,-3.584475 -3.5971,-3.584475 -1.9856,0 -3.5971,1.605845 -3.5971,3.584475 0,1.97863 1.6115,3.584474 3.5971,3.584474 1.9856,0 3.5971,-1.605844 3.5971,-3.584474 z"
       copytype="single_stretched"
       prop_scale="1"
       scale_y_rel="false"
       spacing="0"
       normal_offset="0"
       tang_offset="0"
       prop_units="false"
       vertical_pattern="false"
       hide_knot="false"
       fuse_tolerance="0" />
    <inkscape:path-effect
       effect="bspline"
       id="path-effect466"
       is_visible="true"
       lpeversion="1"
       weight="33.333333"
       steps="2"
       helper_size="0"
       apply_no_weight="true"
       apply_with_weight="true"
       only_selected="false" />
    <inkscape:path-effect
       effect="skeletal"
       id="path-effect462"
       is_visible="true"
       lpeversion="1"
       pattern="M 0,5 C 0,2.24 2.24,0 5,0 7.76,0 10,2.24 10,5 10,7.76 7.76,10 5,10 2.24,10 0,7.76 0,5 Z"
       copytype="single_stretched"
       prop_scale="1"
       scale_y_rel="false"
       spacing="0"
       normal_offset="0"
       tang_offset="0"
       prop_units="false"
       vertical_pattern="false"
       hide_knot="false"
       fuse_tolerance="0" />
    <inkscape:path-effect
       effect="powerstroke"
       id="path-effect456"
       is_visible="true"
       lpeversion="1"
       offset_points="0,0.1322915"
       sort_points="true"
       interpolator_type="CubicBezierJohan"
       interpolator_beta="0.2"
       start_linecap_type="zerowidth"
       linejoin_type="extrp_arc"
       miter_limit="4"
       scale_width="1"
       end_linecap_type="zerowidth" />
    <inkscape:path-effect
       effect="bspline"
       id="path-effect454"
       is_visible="true"
       lpeversion="1"
       weight="33.333333"
       steps="2"
       helper_size="0"
       apply_no_weight="true"
       apply_with_weight="true"
       only_selected="false" />
    <inkscape:path-effect
       effect="powerstroke"
       id="path-effect450"
       is_visible="true"
       lpeversion="1"
       offset_points="0,0.1322915"
       sort_points="true"
       interpolator_type="CubicBezierJohan"
       interpolator_beta="0.2"
       start_linecap_type="zerowidth"
       linejoin_type="extrp_arc"
       miter_limit="4"
       scale_width="1"
       end_linecap_type="zerowidth" />
    <inkscape:path-effect
       effect="spiro"
       id="path-effect444"
       is_visible="true"
       lpeversion="1" />
  </defs>
  <sodipodi:namedview
     id="base"
     pagecolor="#ffffff"
     bordercolor="#666666"
     borderopacity="1.0"
     inkscape:pageopacity="1"
     inkscape:pageshadow="2"
     inkscape:zoom="2.8"
     inkscape:cx="119.83687"
     inkscape:cy="71.818116"
     inkscape:document-units="mm"
     inkscape:current-layer="layer1"
     inkscape:document-rotation="0"
     showgrid="false"
     showborder="true"
     inkscape:lockguides="false"
     inkscape:window-width="1920"
     inkscape:window-height="1013"
     inkscape:window-x="-9"
     inkscape:window-y="-9"
     inkscape:window-maximized="1"
     units="px"
     lock-margins="true"
     fit-margin-top="0"
     fit-margin-left="0"
     fit-margin-right="0"
     fit-margin-bottom="0"
     inkscape:pagecheckerboard="false"
     inkscape:object-paths="true"
     inkscape:snap-others="false" />
  <metadata
     id="metadata5">
    <rdf:RDF>
      <cc:Work
         rdf:about="">
        <dc:format>image/svg+xml</dc:format>
        <dc:type
           rdf:resource="http://purl.org/dc/dcmitype/StillImage" />
        <dc:title>Logo_ab</dc:title>
        <dc:creator>
          <cc:Agent>
            <dc:title>Bonaiuti Andrea</dc:title>
          </cc:Agent>
        </dc:creator>
      </cc:Work>
    </rdf:RDF>
  </metadata>
  <g
     inkscape:label="Livello 1"
     inkscape:groupmode="layer"
     id="layer1"
     transform="translate(223.86724,133.34958)">
    <ellipse
       style="opacity:0.338667;fill:#ffffff;stroke-width:0.203608"
       id="path24"
       cx="-165.09196"
       cy="-2.0028558"
       rx="55.751495"
       ry="64.066963" />
    <path
       id="path839"
       style="font-style:normal;font-variant:normal;font-weight:normal;font-stretch:normal;font-size:206.505px;line-height:1.25;font-family:'Baskerville Old Face';-inkscape-font-specification:'Baskerville Old Face, Normal';font-variant-ligatures:normal;font-variant-caps:normal;font-variant-numeric:normal;font-variant-east-asian:normal;fill:#2a9d8f;fill-opacity:1;stroke-width:0.295618"
       d="m -193.46646,-132.83545 -5.85681,14.47677 c -0.003,-6.8e-4 -0.01,-10e-4 -0.01,-0.002 l -1.20793,2.98598 c 0.002,0.002 0.003,0.0101 0.01,0.0101 l -3.28804,8.12758 c -0.94318,2.33451 -1.70707,4.08988 -2.29186,5.26606 -0.56589,1.15826 -1.15061,2.108318 -1.75423,2.850295 -0.71687,0.922918 -1.45244,1.592497 -2.207,2.008671 -0.7545,0.416173 -1.63168,0.651505 -2.63141,0.705761 v 0.624293 h 12.67612 v -0.624293 c -1.15075,-0.09037 -2.09382,-0.379958 -2.82952,-0.868663 -0.52813,-0.362019 -0.95254,-0.832481 -1.27316,-1.41159 -0.30216,-0.579074 -0.45307,-1.203368 -0.45307,-1.872984 0,-1.14004 0.42421,-2.70539 1.27336,-4.69606 l 0.70747,-1.683 1.47137,-3.74586 h 12.44968 l 2.7164,6.40611 0.4809,1.14007 c 0.52816,1.24866 0.79229,2.244 0.79229,2.98591 0,1.248758 -0.58492,2.226033 -1.75439,2.931761 -0.66028,0.398031 -1.82975,0.669512 -3.50853,0.814306 v 0.624293 h 18.58985 v -0.624293 c -1.1695,-0.126788 -2.04662,-0.27111 -2.63144,-0.434247 -0.58475,-0.181414 -1.10352,-0.434214 -1.55626,-0.760017 -0.64138,-0.470462 -1.23553,-1.167355 -1.78262,-2.09024 -0.54706,-0.922953 -1.28263,-2.461163 -2.207,-4.614593 l -12.30844,-28.52937 z m -1.61275,6.97634 5.94193,14.061 h -2.87221 c -8.3e-4,-0.0101 -0.002,-0.0202 -0.002,-0.0236 h -6.78346 c 0.002,0.0101 0.002,0.0202 0.003,0.0236 h -1.89045 z"
       inkscape:export-xdpi="31.029261"
       inkscape:export-ydpi="31.029261" />
    <path
       id="path837"
       style="font-style:normal;font-variant:normal;font-weight:normal;font-stretch:normal;font-size:206.505px;line-height:1.25;font-family:'Baskerville Old Face';-inkscape-font-specification:'Baskerville Old Face, Normal';font-variant-ligatures:normal;font-variant-caps:normal;font-variant-numeric:normal;font-variant-east-asian:normal;opacity:1;mix-blend-mode:normal;fill:#e9c46a;fill-opacity:1;stroke-width:0.295731"
       d="m -223.36224,-118.61131 v 0.62496 c 1.07489,0.0546 1.95187,0.19895 2.63082,0.43476 0.67887,0.23536 1.27299,0.61593 1.78209,1.14122 0.60352,0.57975 1.0089,1.31336 1.21637,2.20098 0.20751,0.88768 0.31143,2.2644 0.31143,4.13023 v 20.026081 c 0,1.865967 -0.10359,3.24269 -0.31143,4.130169 -0.2075,0.887714 -0.61285,1.621429 -1.21637,2.20101 -0.5091,0.507183 -1.10322,0.887714 -1.78209,1.141222 -0.66012,0.235703 -1.5371,0.380564 -2.63082,0.43482 v 0.624934 h 20.67854 c 2.79109,0 4.95041,-0.145333 6.478,-0.434787 1.54633,-0.289992 2.87582,-0.806078 3.98857,-1.54883 1.22577,-0.833223 2.17817,-1.929159 2.85708,-3.287808 0.69781,-1.376689 1.04676,-2.889371 1.04676,-4.537878 0,-1.59705 -0.32697,-3.080733 -0.97812,-4.451824 h -0.66871 v -0.624867 c 0.1155,-0.01012 0.22769,-0.0236 0.33889,-0.03507 -0.63397,-1.162095 -1.47077,-2.149519 -2.51115,-2.961465 -0.81092,-0.615927 -1.7161,-1.095897 -2.71567,-1.440117 -0.99953,-0.34431 -2.40441,-0.66118 -4.21487,-0.95101 1.32009,-0.45282 2.32909,-0.86057 3.02683,-1.22282 0.69778,-0.38046 1.32003,-0.8514 1.86695,-1.41294 1.5276,-1.52158 2.2914,-3.46909 2.2914,-5.84217 0,-1.46729 -0.33995,-2.78969 -1.01837,-3.96713 -0.66008,-1.17744 -1.60302,-2.12855 -2.82879,-2.85316 -1.41441,-0.81511 -3.19657,-1.30426 -5.34645,-1.46726 -0.58459,-0.0384 -1.81986,-0.055 -3.70574,-0.055 z m 12.13561,0.84243 h 2.63055 c 2.01793,0 3.5173,0.10891 4.498,0.32573 0.9994,0.21716 1.88592,0.62497 2.65905,1.22272 0.88638,0.6884 1.59348,1.65762 2.12155,2.90755 0.54682,1.23176 0.82052,2.53605 0.82052,3.91284 0,1.30416 -0.2641,2.49977 -0.79216,3.58664 -0.50923,1.06882 -1.24473,1.9474 -2.20654,2.63586 -0.5093,0.34429 -1.07499,0.6158 -1.69737,0.81508 -0.34068,0.11229 -0.7458,0.21615 -1.21204,0.3109 -0.10789,0.48308 -0.16977,0.92029 -0.18566,1.31124 2.82826,0.17164 4.96351,0.826515 6.40473,1.964769 0.92411,0.724577 1.65948,1.766123 2.2065,3.124839 0.54683,1.34044 0.8202,2.798631 0.8202,4.374707 0,2.753412 -0.88625,4.927379 -2.65895,6.521529 -1.7539,1.594082 -4.14901,2.391056 -7.18517,2.391056 -2.33852,0 -3.98874,-0.606793 -4.95044,-1.820445 -0.45258,-0.579749 -0.78266,-1.286151 -0.9901,-2.119509 -0.18898,-0.833324 -0.28297,-1.929294 -0.28297,-3.287909 v -11.195027 h 4.48629 c 0.17772,-0.30955 0.35428,-0.64051 0.52823,-0.98958 -0.93308,0.0975 -1.84111,0.14701 -2.72332,0.14701 h -2.2912 z m 5.44253,16.98554 c 0.0232,2.3e-4 0.0357,7e-4 0.0556,9.1e-4 -0.0232,-2.1e-4 -0.0357,-6.8e-4 -0.0556,-9.1e-4 z m -5.44544,4.140011 v 0.861345 h -1.47431 v -0.624968 c 0.52538,-0.0236 1.01657,-0.108241 1.47431,-0.236715 z"
       inkscape:export-xdpi="31.029261"
       inkscape:export-ydpi="31.029261" />
  </g>
</svg>
