<?xml version="1.0" encoding="UTF-8" standalone="no"?>
<svg
   xmlns:dc="http://purl.org/dc/elements/1.1/"
   xmlns:cc="http://creativecommons.org/ns#"
   xmlns:rdf="http://www.w3.org/1999/02/22-rdf-syntax-ns#"
   xmlns:svg="http://www.w3.org/2000/svg"
   xmlns="http://www.w3.org/2000/svg"
   xmlns:sodipodi="http://sodipodi.sourceforge.net/DTD/sodipodi-0.dtd"
   xmlns:inkscape="http://www.inkscape.org/namespaces/inkscape"
   width="62"
   height="62"
   viewBox="0 0 16.404167 16.404167"
   version="1.1"
   id="svg8"
   inkscape:version="1.0.1 (3bc2e813f5, 2020-09-07)"
   sodipodi:docname="logo_ab.svg"
   inkscape:export-filename="C:\workspace_fe\personalSite\img\logo_ab2x.png"
   inkscape:export-xdpi="30.733644"
   inkscape:export-ydpi="30.733644">
  <title
     id="title28">Logo_ab</title>
  <defs
     id="defs2">
    <inkscape:path-effect
       effect="pts2ellipse"
       id="path-effect480"
       is_visible="true"
       lpeversion="1"
       method="steiner_inellipse"
       gen_arc="true"
       arc_other="false"
       slice_arc="true"
       gen_isometric_frame="false"
       draw_axes="false"
       gen_perspective_frame="false"
       draw_perspective_axes="false"
       rot_axes="0"
       draw_ori_path="false" />
    <inkscape:path-effect
       effect="skeletal"
       id="path-effect468"
       is_visible="true"
       lpeversion="1"
       pattern="m -361.51315,-34.185979 c 0,-1.97863 -1.6115,-3.584475 -3.5971,-3.584475 -1.9856,0 -3.5971,1.605845 -3.5971,3.584475 0,1.97863 1.6115,3.584474 3.5971,3.584474 1.9856,0 3.5971,-1.605844 3.5971,-3.584474 z"
       copytype="single_stretched"
       prop_scale="1"
       scale_y_rel="false"
       spacing="0"
       normal_offset="0"
       tang_offset="0"
       prop_units="false"
       vertical_pattern="false"
       hide_knot="false"
       fuse_tolerance="0" />
    <inkscape:path-effect
       effect="bspline"
       id="path-effect466"
       is_visible="true"
       lpeversion="1"
       weight="33.333333"
       steps="2"
       helper_size="0"
       apply_no_weight="true"
       apply_with_weight="true"
       only_selected="false" />
    <inkscape:path-effect
       effect="skeletal"
       id="path-effect462"
       is_visible="true"
       lpeversion="1"
       pattern="M 0,5 C 0,2.24 2.24,0 5,0 7.76,0 10,2.24 10,5 10,7.76 7.76,10 5,10 2.24,10 0,7.76 0,5 Z"
       copytype="single_stretched"
       prop_scale="1"
       scale_y_rel="false"
       spacing="0"
       normal_offset="0"
       tang_offset="0"
       prop_units="false"
       vertical_pattern="false"
       hide_knot="false"
       fuse_tolerance="0" />
    <inkscape:path-effect
       effect="powerstroke"
       id="path-effect456"
       is_visible="true"
       lpeversion="1"
       offset_points="0,0.1322915"
       sort_points="true"
       interpolator_type="CubicBezierJohan"
       interpolator_beta="0.2"
       start_linecap_type="zerowidth"
       linejoin_type="extrp_arc"
       miter_limit="4"
       scale_width="1"
       end_linecap_type="zerowidth" />
    <inkscape:path-effect
       effect="bspline"
       id="path-effect454"
       is_visible="true"
       lpeversion="1"
       weight="33.333333"
       steps="2"
       helper_size="0"
       apply_no_weight="true"
       apply_with_weight="true"
       only_selected="false" />
    <inkscape:path-effect
       effect="powerstroke"
       id="path-effect450"
       is_visible="true"
       lpeversion="1"
       offset_points="0,0.1322915"
       sort_points="true"
       interpolator_type="CubicBezierJohan"
       interpolator_beta="0.2"
       start_linecap_type="zerowidth"
       linejoin_type="extrp_arc"
       miter_limit="4"
       scale_width="1"
       end_linecap_type="zerowidth" />
    <inkscape:path-effect
       effect="spiro"
       id="path-effect444"
       is_visible="true"
       lpeversion="1" />
  </defs>
  <sodipodi:namedview
     id="base"
     pagecolor="#ffffff"
     bordercolor="#666666"
     borderopacity="1.0"
     inkscape:pageopacity="1"
     inkscape:pageshadow="2"
     inkscape:zoom="11.2"
     inkscape:cx="9.3313216"
     inkscape:cy="32.215149"
     inkscape:document-units="mm"
     inkscape:current-layer="layer1"
     inkscape:document-rotation="0"
     showgrid="false"
     showborder="true"
     inkscape:lockguides="false"
     inkscape:window-width="1920"
     inkscape:window-height="1013"
     inkscape:window-x="-9"
     inkscape:window-y="-9"
     inkscape:window-maximized="1"
     units="px"
     lock-margins="true"
     fit-margin-top="0"
     fit-margin-left="0"
     fit-margin-right="0"
     fit-margin-bottom="0"
     inkscape:pagecheckerboard="false"
     inkscape:object-paths="true"
     inkscape:snap-others="false" />
  <metadata
     id="metadata5">
    <rdf:RDF>
      <cc:Work
         rdf:about="">
        <dc:format>image/svg+xml</dc:format>
        <dc:type
           rdf:resource="http://purl.org/dc/dcmitype/StillImage" />
        <dc:title>Logo_ab</dc:title>
        <dc:creator>
          <cc:Agent>
            <dc:title>Bonaiuti Andrea</dc:title>
          </cc:Agent>
        </dc:creator>
      </cc:Work>
    </rdf:RDF>
  </metadata>
  <g
     inkscape:label="Livello 1"
     inkscape:groupmode="layer"
     id="layer1"
     transform="translate(223.86724,133.34958)">
    <ellipse
       style="opacity:0.338667;fill:#ffffff;stroke-width:0.203608"
       id="path24"
       cx="-165.09196"
       cy="-2.0028558"
       rx="55.751495"
       ry="64.066963" />
    <path
       id="path839"
       style="font-style:normal;font-variant:normal;font-weight:normal;font-stretch:normal;font-size:206.505px;line-height:1.25;font-family:'Baskerville Old Face';-inkscape-font-specification:'Baskerville Old Face, Normal';font-variant-ligatures:normal;font-variant-caps:normal;font-variant-numeric:normal;font-variant-east-asian:normal;fill:#2a9d8f;fill-opacity:1;stroke-width:0.0884924"
       d="m -214.3289,-132.83545 -1.7697,4.29322 c -0.001,-2e-4 -0.003,-3e-4 -0.003,-6.8e-4 l -0.36499,0.88552 c 6.3e-4,6.8e-4 0.001,0.003 0.003,0.003 l -0.99352,2.41031 c -0.28499,0.69232 -0.51581,1.21289 -0.69251,1.5617 -0.17099,0.34349 -0.34767,0.62524 -0.53006,0.84528 -0.21661,0.2737 -0.43887,0.47227 -0.66687,0.59569 -0.22798,0.12342 -0.49303,0.19321 -0.79511,0.2093 v 0.18514 h 3.83023 v -0.18514 c -0.34771,-0.0268 -0.63267,-0.11268 -0.85497,-0.25761 -0.15958,-0.10736 -0.28782,-0.24688 -0.3847,-0.41862 -0.0913,-0.17173 -0.1369,-0.35687 -0.1369,-0.55545 0,-0.33809 0.12818,-0.80231 0.38476,-1.39266 l 0.21377,-0.49911 0.44459,-1.11087 h 3.76181 l 0.82079,1.89979 0.14531,0.3381 c 0.15959,0.3703 0.2394,0.66548 0.2394,0.8855 0,0.37033 -0.17674,0.66015 -0.53011,0.86944 -0.19951,0.11804 -0.55288,0.19855 -1.06014,0.24149 v 0.18514 h 5.61713 v -0.18514 c -0.35338,-0.0376 -0.61841,-0.0804 -0.79512,-0.12878 -0.17669,-0.0538 -0.33344,-0.12877 -0.47024,-0.22539 -0.1938,-0.13952 -0.37333,-0.34619 -0.53864,-0.61988 -0.1653,-0.27371 -0.38756,-0.72988 -0.66687,-1.3685 l -3.71913,-8.46065 z m -0.48731,2.0689 1.79542,4.16992 h -0.86787 c -2.5e-4,-0.003 -6.2e-4,-0.006 -6.2e-4,-0.007 h -2.0497 c 6.3e-4,0.003 6.3e-4,0.006 10e-4,0.007 h -0.57122 z"
       inkscape:export-xdpi="31.029261"
       inkscape:export-ydpi="31.029261" />
    <path
       id="path837"
       style="font-style:normal;font-variant:normal;font-weight:normal;font-stretch:normal;font-size:206.505px;line-height:1.25;font-family:'Baskerville Old Face';-inkscape-font-specification:'Baskerville Old Face, Normal';font-variant-ligatures:normal;font-variant-caps:normal;font-variant-numeric:normal;font-variant-east-asian:normal;opacity:1;mix-blend-mode:normal;fill:#e9c46a;fill-opacity:1;stroke-width:0.0885262"
       d="m -223.36224,-128.61715 v 0.18534 c 0.32479,0.0162 0.58978,0.059 0.79493,0.12893 0.20513,0.0698 0.38465,0.18266 0.53848,0.33844 0.18236,0.17193 0.30485,0.38949 0.36754,0.65272 0.0627,0.26325 0.0941,0.67153 0.0941,1.22486 v 5.93892 c 0,0.55337 -0.0313,0.96165 -0.0941,1.22484 -0.0627,0.26326 -0.18518,0.48085 -0.36754,0.65273 -0.15383,0.15041 -0.33335,0.26326 -0.53848,0.33844 -0.19946,0.0699 -0.46445,0.11286 -0.79493,0.12895 v 0.18533 h 6.24825 c 0.84336,0 1.49582,-0.0431 1.9574,-0.12894 0.46724,-0.086 0.86896,-0.23905 1.20519,-0.45932 0.37038,-0.2471 0.65816,-0.57211 0.8633,-0.97503 0.21085,-0.40827 0.31629,-0.85687 0.31629,-1.34575 0,-0.47362 -0.0988,-0.91362 -0.29555,-1.32023 h -0.20206 v -0.18531 c 0.0349,-0.003 0.0688,-0.007 0.1024,-0.0104 -0.19156,-0.34463 -0.44441,-0.63746 -0.75877,-0.87825 -0.24503,-0.18266 -0.51854,-0.325 -0.82057,-0.42708 -0.30202,-0.10211 -0.72652,-0.19608 -1.27357,-0.28203 0.39888,-0.13429 0.70376,-0.25521 0.91459,-0.36264 0.21084,-0.11283 0.39886,-0.25249 0.56412,-0.41902 0.46158,-0.45124 0.69237,-1.02879 0.69237,-1.73255 0,-0.43514 -0.10272,-0.82731 -0.30771,-1.17649 -0.19945,-0.34918 -0.48437,-0.63124 -0.85475,-0.84613 -0.42738,-0.24173 -0.96588,-0.38679 -1.61549,-0.43513 -0.17664,-0.0114 -0.54989,-0.0163 -1.11973,-0.0163 z m 3.66691,0.24983 h 0.79485 c 0.60974,0 1.06279,0.0323 1.35912,0.0966 0.30198,0.0644 0.56985,0.18534 0.80346,0.36261 0.26783,0.20415 0.48149,0.49158 0.64105,0.86226 0.16523,0.36529 0.24793,0.75209 0.24793,1.16039 0,0.38676 -0.0798,0.74133 -0.23936,1.06365 -0.15387,0.31697 -0.37611,0.57752 -0.66673,0.78169 -0.15389,0.1021 -0.32482,0.18262 -0.51288,0.24172 -0.10294,0.0333 -0.22535,0.0641 -0.36623,0.0922 -0.0326,0.14326 -0.0513,0.27292 -0.0561,0.38886 0.85459,0.0509 1.49978,0.24511 1.93526,0.58267 0.27923,0.21488 0.50143,0.52376 0.66672,0.9267 0.16523,0.39752 0.24783,0.82996 0.24783,1.29736 0,0.81655 -0.26779,1.46126 -0.80343,1.93402 -0.52996,0.47274 -1.25367,0.70909 -2.17108,0.70909 -0.70661,0 -1.20524,-0.17995 -1.49583,-0.53987 -0.13675,-0.17193 -0.23649,-0.38142 -0.29917,-0.62856 -0.0571,-0.24713 -0.0855,-0.57215 -0.0855,-0.97506 v -3.31999 h 1.35558 c 0.0537,-0.0918 0.10705,-0.18995 0.15961,-0.29347 -0.28194,0.0289 -0.55631,0.0436 -0.82288,0.0436 h -0.69231 z m 1.64452,5.03722 c 0.007,7e-5 0.0108,2.1e-4 0.0168,2.7e-4 -0.007,-6e-5 -0.0108,-2e-4 -0.0168,-2.7e-4 z m -1.6454,1.22776 v 0.25544 h -0.44548 v -0.18534 c 0.15875,-0.007 0.30717,-0.0321 0.44548,-0.0702 z"
       inkscape:export-xdpi="31.029261"
       inkscape:export-ydpi="31.029261" />
  </g>
</svg>
