<?xml version="1.0" encoding="UTF-8" standalone="no"?>
<svg
   xmlns:dc="http://purl.org/dc/elements/1.1/"
   xmlns:cc="http://creativecommons.org/ns#"
   xmlns:rdf="http://www.w3.org/1999/02/22-rdf-syntax-ns#"
   xmlns:svg="http://www.w3.org/2000/svg"
   xmlns="http://www.w3.org/2000/svg"
   xmlns:sodipodi="http://sodipodi.sourceforge.net/DTD/sodipodi-0.dtd"
   xmlns:inkscape="http://www.inkscape.org/namespaces/inkscape"
   width="48"
   height="48"
   viewBox="0 0 12.7 12.7"
   version="1.1"
   id="svg8"
   inkscape:version="1.0.1 (3bc2e813f5, 2020-09-07)"
   sodipodi:docname="logo_ab_favicon.svg"
   inkscape:export-filename="C:\workspace_fe\personalSite\img\logo_ab2x.png"
   inkscape:export-xdpi="30.733644"
   inkscape:export-ydpi="30.733644">
  <title
     id="title28">Logo_ab</title>
  <defs
     id="defs2">
    <inkscape:path-effect
       effect="pts2ellipse"
       id="path-effect480"
       is_visible="true"
       lpeversion="1"
       method="steiner_inellipse"
       gen_arc="true"
       arc_other="false"
       slice_arc="true"
       gen_isometric_frame="false"
       draw_axes="false"
       gen_perspective_frame="false"
       draw_perspective_axes="false"
       rot_axes="0"
       draw_ori_path="false" />
    <inkscape:path-effect
       effect="skeletal"
       id="path-effect468"
       is_visible="true"
       lpeversion="1"
       pattern="m -361.51315,-34.185979 c 0,-1.97863 -1.6115,-3.584475 -3.5971,-3.584475 -1.9856,0 -3.5971,1.605845 -3.5971,3.584475 0,1.97863 1.6115,3.584474 3.5971,3.584474 1.9856,0 3.5971,-1.605844 3.5971,-3.584474 z"
       copytype="single_stretched"
       prop_scale="1"
       scale_y_rel="false"
       spacing="0"
       normal_offset="0"
       tang_offset="0"
       prop_units="false"
       vertical_pattern="false"
       hide_knot="false"
       fuse_tolerance="0" />
    <inkscape:path-effect
       effect="bspline"
       id="path-effect466"
       is_visible="true"
       lpeversion="1"
       weight="33.333333"
       steps="2"
       helper_size="0"
       apply_no_weight="true"
       apply_with_weight="true"
       only_selected="false" />
    <inkscape:path-effect
       effect="skeletal"
       id="path-effect462"
       is_visible="true"
       lpeversion="1"
       pattern="M 0,5 C 0,2.24 2.24,0 5,0 7.76,0 10,2.24 10,5 10,7.76 7.76,10 5,10 2.24,10 0,7.76 0,5 Z"
       copytype="single_stretched"
       prop_scale="1"
       scale_y_rel="false"
       spacing="0"
       normal_offset="0"
       tang_offset="0"
       prop_units="false"
       vertical_pattern="false"
       hide_knot="false"
       fuse_tolerance="0" />
    <inkscape:path-effect
       effect="powerstroke"
       id="path-effect456"
       is_visible="true"
       lpeversion="1"
       offset_points="0,0.1322915"
       sort_points="true"
       interpolator_type="CubicBezierJohan"
       interpolator_beta="0.2"
       start_linecap_type="zerowidth"
       linejoin_type="extrp_arc"
       miter_limit="4"
       scale_width="1"
       end_linecap_type="zerowidth" />
    <inkscape:path-effect
       effect="bspline"
       id="path-effect454"
       is_visible="true"
       lpeversion="1"
       weight="33.333333"
       steps="2"
       helper_size="0"
       apply_no_weight="true"
       apply_with_weight="true"
       only_selected="false" />
    <inkscape:path-effect
       effect="powerstroke"
       id="path-effect450"
       is_visible="true"
       lpeversion="1"
       offset_points="0,0.1322915"
       sort_points="true"
       interpolator_type="CubicBezierJohan"
       interpolator_beta="0.2"
       start_linecap_type="zerowidth"
       linejoin_type="extrp_arc"
       miter_limit="4"
       scale_width="1"
       end_linecap_type="zerowidth" />
    <inkscape:path-effect
       effect="spiro"
       id="path-effect444"
       is_visible="true"
       lpeversion="1" />
  </defs>
  <sodipodi:namedview
     id="base"
     pagecolor="#ffffff"
     bordercolor="#666666"
     borderopacity="1.0"
     inkscape:pageopacity="1"
     inkscape:pageshadow="2"
     inkscape:zoom="11.2"
     inkscape:cx="9.3313216"
     inkscape:cy="32.215149"
     inkscape:document-units="mm"
     inkscape:current-layer="layer1"
     inkscape:document-rotation="0"
     showgrid="false"
     showborder="true"
     inkscape:lockguides="false"
     inkscape:window-width="1920"
     inkscape:window-height="1013"
     inkscape:window-x="-9"
     inkscape:window-y="-9"
     inkscape:window-maximized="1"
     units="px"
     lock-margins="true"
     fit-margin-top="0"
     fit-margin-left="0"
     fit-margin-right="0"
     fit-margin-bottom="0"
     inkscape:pagecheckerboard="false"
     inkscape:object-paths="true"
     inkscape:snap-others="false" />
  <metadata
     id="metadata5">
    <rdf:RDF>
      <cc:Work
         rdf:about="">
        <dc:format>image/svg+xml</dc:format>
        <dc:type
           rdf:resource="http://purl.org/dc/dcmitype/StillImage" />
        <dc:title>Logo_ab</dc:title>
        <dc:creator>
          <cc:Agent>
            <dc:title>Bonaiuti Andrea</dc:title>
          </cc:Agent>
        </dc:creator>
      </cc:Work>
    </rdf:RDF>
  </metadata>
  <g
     inkscape:label="Livello 1"
     inkscape:groupmode="layer"
     id="layer1"
     transform="translate(223.86724,133.34958)">
    <ellipse
       style="opacity:0.338667;fill:#ffffff;stroke-width:0.203608"
       id="path24"
       cx="-165.09196"
       cy="-2.0028558"
       rx="55.751495"
       ry="64.066963" />
    <path
       id="path839"
       style="font-style:normal;font-variant:normal;font-weight:normal;font-stretch:normal;font-size:206.505px;line-height:1.25;font-family:'Baskerville Old Face';-inkscape-font-specification:'Baskerville Old Face, Normal';font-variant-ligatures:normal;font-variant-caps:normal;font-variant-numeric:normal;font-variant-east-asian:normal;fill:#2a9d8f;stroke-width:0.0566439;fill-opacity:1"
       d="m -216.11575,-132.22124 -1.17899,2.64039 c -7.1e-4,-1.2e-4 -0.002,-1.8e-4 -0.002,-4.1e-4 l -0.24316,0.54461 c 4.2e-4,4.1e-4 7.1e-4,0.002 0.002,0.002 l -0.66189,1.48237 c -0.18986,0.42579 -0.34364,0.74594 -0.46135,0.96047 -0.11392,0.21125 -0.23163,0.38453 -0.35314,0.51986 -0.1443,0.16833 -0.29237,0.29045 -0.44427,0.36636 -0.15188,0.0759 -0.32846,0.11882 -0.52971,0.12872 v 0.11387 h 2.55173 v -0.11387 c -0.23164,-0.0165 -0.42149,-0.0693 -0.56959,-0.15843 -0.10631,-0.066 -0.19175,-0.15184 -0.25629,-0.25746 -0.0608,-0.10561 -0.0912,-0.21948 -0.0912,-0.34161 0,-0.20793 0.0854,-0.49343 0.25633,-0.85651 l 0.14241,-0.30696 0.29619,-0.6832 h 2.50615 l 0.54681,1.1684 0.0968,0.20793 c 0.10632,0.22775 0.15949,0.40929 0.15949,0.5446 0,0.22776 -0.11774,0.406 -0.35316,0.53472 -0.13291,0.0726 -0.36833,0.12211 -0.70627,0.14852 v 0.11387 h 3.74217 v -0.11387 c -0.23543,-0.0231 -0.41199,-0.0495 -0.52972,-0.0792 -0.11771,-0.0331 -0.22214,-0.0792 -0.31327,-0.13862 -0.12911,-0.0858 -0.24872,-0.21291 -0.35885,-0.38124 -0.11012,-0.16833 -0.25819,-0.44888 -0.44427,-0.84164 l -2.47771,-5.20343 z m -0.32465,1.2724 1.19612,2.56457 h -0.57818 c -1.7e-4,-0.002 -4.1e-4,-0.004 -4.1e-4,-0.005 h -1.36553 c 4.2e-4,0.002 4.2e-4,0.004 7.1e-4,0.005 h -0.38055 z"
       inkscape:export-xdpi="31.029261"
       inkscape:export-ydpi="31.029261" />
    <path
       id="path837"
       style="font-style:normal;font-variant:normal;font-weight:normal;font-stretch:normal;font-size:206.505px;line-height:1.25;font-family:'Baskerville Old Face';-inkscape-font-specification:'Baskerville Old Face, Normal';font-variant-ligatures:normal;font-variant-caps:normal;font-variant-numeric:normal;font-variant-east-asian:normal;fill:#e9c46a;stroke-width:0.0566655;fill-opacity:1;opacity:1;"
       d="m -222.13382,-129.62692 v 0.11398 c 0.21638,0.01 0.39292,0.0363 0.52959,0.0793 0.13666,0.0429 0.25626,0.11234 0.35874,0.20815 0.12149,0.10573 0.20309,0.23954 0.24486,0.40143 0.0418,0.1619 0.0627,0.413 0.0627,0.7533 v 3.65253 c 0,0.34032 -0.0208,0.59142 -0.0627,0.75329 -0.0418,0.16191 -0.12337,0.29573 -0.24486,0.40144 -0.10248,0.0925 -0.22208,0.16191 -0.35874,0.20815 -0.13288,0.043 -0.30942,0.0694 -0.52959,0.0793 v 0.11398 h 4.16262 c 0.56186,0 0.99653,-0.0265 1.30404,-0.0793 0.31128,-0.0529 0.57891,-0.14702 0.8029,-0.28248 0.24675,-0.15198 0.43847,-0.35187 0.57513,-0.59967 0.14047,-0.25109 0.21072,-0.52698 0.21072,-0.82765 0,-0.29128 -0.0658,-0.56189 -0.19689,-0.81196 h -0.13462 v -0.11397 c 0.0233,-0.002 0.0459,-0.005 0.0682,-0.006 -0.12762,-0.21195 -0.29607,-0.39204 -0.5055,-0.54013 -0.16324,-0.11234 -0.34546,-0.19988 -0.54667,-0.26266 -0.20121,-0.0628 -0.48401,-0.12059 -0.84846,-0.17345 0.26574,-0.0826 0.46885,-0.15696 0.60931,-0.22303 0.14046,-0.0694 0.26572,-0.15529 0.37582,-0.25771 0.3075,-0.27752 0.46126,-0.63272 0.46126,-1.06554 0,-0.26762 -0.0684,-0.50881 -0.205,-0.72356 -0.13288,-0.21475 -0.32269,-0.38822 -0.56944,-0.52038 -0.28472,-0.14867 -0.64348,-0.23788 -1.07625,-0.26761 -0.11768,-0.007 -0.36634,-0.01 -0.74597,-0.01 z m 2.44292,0.15365 h 0.52954 c 0.40621,0 0.70803,0.0199 0.90544,0.0594 0.20119,0.0396 0.37964,0.11399 0.53528,0.22301 0.17843,0.12556 0.32077,0.30233 0.42707,0.5303 0.11008,0.22466 0.16517,0.46255 0.16517,0.71366 0,0.23786 -0.0532,0.45593 -0.15946,0.65416 -0.10251,0.19494 -0.25057,0.35519 -0.44418,0.48075 -0.10252,0.0628 -0.2164,0.11232 -0.34168,0.14866 -0.0686,0.0205 -0.15013,0.0394 -0.24399,0.0567 -0.0217,0.0881 -0.0342,0.16784 -0.0374,0.23915 0.56933,0.0313 0.99916,0.15074 1.28928,0.35835 0.18602,0.13216 0.33406,0.32212 0.44417,0.56994 0.11008,0.24448 0.16511,0.51043 0.16511,0.79789 0,0.50219 -0.17841,0.8987 -0.53525,1.18945 -0.35306,0.29074 -0.8352,0.4361 -1.44639,0.4361 -0.47074,0 -0.80293,-0.11067 -0.99653,-0.33203 -0.0911,-0.10573 -0.15755,-0.23458 -0.19931,-0.38657 -0.038,-0.15199 -0.057,-0.35188 -0.057,-0.59968 v -2.04184 h 0.9031 c 0.0357,-0.0565 0.0713,-0.11682 0.10633,-0.18049 -0.18783,0.0178 -0.37062,0.0268 -0.54821,0.0268 h -0.46122 z m 1.09559,3.09796 c 0.005,4e-5 0.007,1.3e-4 0.0112,1.7e-4 -0.005,-4e-5 -0.007,-1.3e-4 -0.0112,-1.7e-4 z m -1.09618,0.75509 v 0.1571 h -0.29678 v -0.11399 c 0.10576,-0.005 0.20464,-0.0197 0.29678,-0.0432 z"
       inkscape:export-xdpi="31.029261"
       inkscape:export-ydpi="31.029261" />
  </g>
</svg>
